<svg width="604.22626953125px" height="336.8375px" xmlns="http://www.w3.org/2000/svg" viewBox="-52.11313476562498 -93.41874999999999 604.22626953125 336.8375" style="background: rgba(0, 0, 0, 0);" preserveAspectRatio="xMidYMid"><defs><filter id="editing-hole" x="-100%" y="-100%" width="300%" height="300%"><feFlood flood-color="#f14747" result="black"></feFlood><feMorphology operator="dilate" radius="2" in="SourceGraphic" result="erode"></feMorphology><feGaussianBlur in="erode" stdDeviation="4" result="blur"></feGaussianBlur><feOffset in="blur" dx="2" dy="2" result="offset"></feOffset><feComposite operator="atop" in="offset" in2="black" result="merge"></feComposite><feComposite operator="in" in="merge" in2="SourceGraphic" result="inner-shadow"></feComposite></filter></defs><g filter="url(#editing-hole)"><g transform="translate(38.91717839241028, 146.5999984741211)"><path d="M41.20-101L35.60-82.20L35.60-82.20Q47.20-83.20 54.40-83.20L54.40-83.20L54.40-83.20Q61.60-83.20 69.20-80.60L69.20-80.60L69.20-80.60Q76.80-78 82.40-73.60L82.40-73.60L82.40-73.60Q94.80-63.80 94.80-51.30L94.80-51.30L94.80-51.30Q94.80-38.80 90.30-28.80L90.30-28.80L90.30-28.80Q85.80-18.80 78-11.60L78-11.60L78-11.60Q61.40 4 36.20 4L36.20 4L36.20 4Q18 4 8.40-1.80L8.40-1.80L8.40-1.80Q-1.20-7.60-1.20-18.70L-1.20-18.70L-1.20-18.70Q-1.20-29.80 5.80-35.80L5.80-35.80L5.80-35.80Q14.20-21.60 32-21.60L32-21.60L32-21.60Q42.80-21.60 48.80-26.60L48.80-26.60L48.80-26.60Q54.80-31.60 54.80-41.20L54.80-41.20L54.80-41.20Q54.80-60.40 27-60.40L27-60.40L27-60.40Q16.40-60.40 9.60-59.60L9.60-59.60L28.40-132L75.40-132L75.40-132Q91.20-132 96.20-139L96.20-139L96.20-139Q101.40-134.40 101.40-124.20L101.40-124.20L101.40-124.20Q101.40-114.60 93.80-107.80L93.80-107.80L93.80-107.80Q86.20-101 75.40-101L75.40-101L41.20-101ZM151.60-47.60L151.60-47.60L151.60-47.60Q151.60-88 170.60-112L170.60-112L170.60-112Q189.60-136 222.20-136L222.20-136L222.20-136Q239.60-136 249.60-123L249.60-123L249.60-123Q259.60-110 259.60-88.30L259.60-88.30L259.60-88.30Q259.60-66.60 254.70-49.70L254.70-49.70L254.70-49.70Q249.80-32.80 241-20.80L241-20.80L241-20.80Q222.60 4.20 192 4.20L192 4.20L192 4.20Q171.40 4.20 161.50-8.50L161.50-8.50L161.50-8.50Q151.60-21.20 151.60-47.60ZM187-34L187-34L187-34Q187-13.80 193.60-13.80L193.60-13.80L193.60-13.80Q199.60-13.80 205.10-20.80L205.10-20.80L205.10-20.80Q210.60-27.80 215-39.60L215-39.60L215-39.60Q224.40-65.40 224.40-97.40L224.40-97.40L224.40-97.40Q224.40-108.20 222.70-113.10L222.70-113.10L222.70-113.10Q221-118 216.50-118L216.50-118L216.50-118Q212-118 206.70-110.20L206.70-110.20L206.70-110.20Q201.40-102.40 197-90.20L197-90.20L197-90.20Q187-62.40 187-34ZM313.60-47.60L313.60-47.60L313.60-47.60Q313.60-88 332.60-112L332.60-112L332.60-112Q351.60-136 384.20-136L384.20-136L384.20-136Q401.60-136 411.60-123L411.60-123L411.60-123Q421.60-110 421.60-88.30L421.60-88.30L421.60-88.30Q421.60-66.60 416.70-49.70L416.70-49.70L416.70-49.70Q411.80-32.80 403-20.80L403-20.80L403-20.80Q384.60 4.20 354 4.20L354 4.20L354 4.20Q333.40 4.20 323.50-8.50L323.50-8.50L323.50-8.50Q313.60-21.20 313.60-47.60ZM349-34L349-34L349-34Q349-13.80 355.60-13.80L355.60-13.80L355.60-13.80Q361.60-13.80 367.10-20.80L367.10-20.80L367.10-20.80Q372.60-27.80 377-39.60L377-39.60L377-39.60Q386.40-65.40 386.40-97.40L386.40-97.40L386.40-97.40Q386.40-108.20 384.70-113.10L384.70-113.10L384.70-113.10Q383-118 378.50-118L378.50-118L378.50-118Q374-118 368.70-110.20L368.70-110.20L368.70-110.20Q363.40-102.40 359-90.20L359-90.20L359-90.20Q349-62.40 349-34Z" fill="#ccc"></path></g></g><style>text {
  font-size: 64px;
  font-family: Arial Black;
  dominant-baseline: central;
  text-anchor: middle;
}</style></svg>