<svg width="592.51748046875px" height="336.8375px" xmlns="http://www.w3.org/2000/svg" viewBox="-46.25874023437501 -93.41874999999999 592.51748046875 336.8375" style="background: rgba(0, 0, 0, 0);" preserveAspectRatio="xMidYMid"><defs><linearGradient id="editing-outline-gradient" x1="-0.4975640502598242" x2="1.4975640502598242" y1="0.4302435262558747" y2="0.5697564737441253"><stop offset="0" stop-color="#ee4208"></stop><stop offset="1" stop-color="#4139ff"></stop></linearGradient><filter id="editing-outline" x="-100%" y="-100%" width="300%" height="300%"><feMorphology in="SourceGraphic" operator="dilate" radius="6" result="outline"></feMorphology><feComposite operator="out" in="outline" in2="SourceAlpha"></feComposite></filter></defs><g filter="url(#editing-outline)"><g transform="translate(37.774996757507324, 145)"><path d="M107.80-41.40L107.80-41.40L107.80-41.40Q113-37.60 113-29.50L113-29.50L113-29.50Q113-21.40 109.50-15.70L109.50-15.70L109.50-15.70Q106-10 99.20-5.60L99.20-5.60L99.20-5.60Q84.60 3.80 59.10 3.80L59.10 3.80L59.10 3.80Q33.60 3.80 19.70-9.50L19.70-9.50L19.70-9.50Q5.80-22.80 5.80-46.40L5.80-46.40L5.80-46.40Q5.80-79.80 23.20-105.20L23.20-105.20L23.20-105.20Q36.40-124 60-132L60-132L60-132Q72.20-136 84.20-136L84.20-136L84.20-136Q96.20-136 103.60-134.40L103.60-134.40L103.60-134.40Q111-132.80 116.60-129.60L116.60-129.60L116.60-129.60Q128.80-122.60 128.80-111.40L128.80-111.40L128.80-111.40Q128.80-101.20 119.20-93.60L119.20-93.60L119.20-93.60Q110.40-86.80 103.20-86.80L103.20-86.80L103.20-86.80Q96-86.80 93-87.80L93-87.80L93-87.80Q93.80-95 93.80-99.70L93.80-99.70L93.80-99.70Q93.80-104.40 93.60-107.80L93.60-107.80L93.60-107.80Q93.40-111.20 92.40-114.40L92.40-114.40L92.40-114.40Q90.40-121.80 84.30-121.80L84.30-121.80L84.30-121.80Q78.20-121.80 72.10-116.10L72.10-116.10L72.10-116.10Q66-110.40 60.80-100.80L60.80-100.80L60.80-100.80Q49-79 49-53.20L49-53.20L49-53.20Q49-40.80 56-33.70L56-33.70L56-33.70Q63-26.60 78-26.60L78-26.60L78-26.60Q89.20-26.60 99.80-34L99.80-34L99.80-34Q104.40-37.20 107.80-41.40ZM146.60 0L123.60 0L159.80-132L201.60-132L210.80-56.60L248-132L283-132L286.60-33.20L286.60-33.20Q287.40-13.60 297-7.60L297-7.60L297-7.60Q294.80-3.60 288.40 0.20L288.40 0.20L288.40 0.20Q282 4 273.50 4L273.50 4L273.50 4Q265 4 260 1.60L260 1.60L260 1.60Q255-0.80 252.20-4.80L252.20-4.80L252.20-4.80Q247.20-12 247.20-25.80L247.20-25.80L247.20-87.60L207.80 0L183 0L169-89.80L146.60 0ZM383.60-92.40L383.60-92.40L383.60-92.40Q386.60-98.40 386.60-104L386.60-104L386.60-104Q386.60-109.60 386-112.70L386-112.70L386-112.70Q385.40-115.80 384-118.20L384-118.20L384-118.20Q381-123.40 375-123.40L375-123.40L375-123.40Q367.60-123.40 361.60-118L361.60-118L361.60-118Q355.20-112.40 355.20-103.60L355.20-103.60L355.20-103.60Q355.20-98 359.10-93.70L359.10-93.70L359.10-93.70Q363-89.40 369-85.40L369-85.40L369-85.40Q375-81.40 381.80-77.40L381.80-77.40L381.80-77.40Q388.60-73.40 394.60-68.60L394.60-68.60L394.60-68.60Q408.40-57.60 408.40-42.80L408.40-42.80L408.40-42.80Q408.40-32.80 403.10-24.30L403.10-24.30L403.10-24.30Q397.80-15.80 389-9.60L389-9.60L389-9.60Q369.80 4 344.40 4L344.40 4L344.40 4Q323.80 4 313.20-2.70L313.20-2.70L313.20-2.70Q302.60-9.40 302.60-19.60L302.60-19.60L302.60-19.60Q302.60-37.80 316.80-42.40L316.80-42.40L316.80-42.40Q320.80-43.80 326.90-43.80L326.90-43.80L326.90-43.80Q333-43.80 340-41.20L340-41.20L340-41.20Q336.80-33 336.80-25.60L336.80-25.60L336.80-25.60Q336.80-9.60 348.20-9.60L348.20-9.60L348.20-9.60Q355.60-9.60 361.70-15L361.70-15L361.70-15Q367.80-20.40 367.80-26.50L367.80-26.50L367.80-26.50Q367.80-32.60 363.90-37L363.90-37L363.90-37Q360-41.40 354.20-44.90L354.20-44.90L354.20-44.90Q348.40-48.40 341.70-51.80L341.70-51.80L341.70-51.80Q335-55.20 329.20-60L329.20-60L329.20-60Q315.60-71 315.60-88.60L315.60-88.60L315.60-88.60Q315.60-100 321.20-108.90L321.20-108.90L321.20-108.90Q326.80-117.80 335.80-123.80L335.80-123.80L335.80-123.80Q353.80-136 375.90-136L375.90-136L375.90-136Q398-136 408.70-129.40L408.70-129.40L408.70-129.40Q419.40-122.80 419.40-111.60L419.40-111.60L419.40-111.60Q419.40-101.80 411.80-95.60L411.80-95.60L411.80-95.60Q405.20-90.40 397.20-90.40L397.20-90.40L397.20-90.40Q389.20-90.40 383.60-92.40Z" fill="url(#editing-outline-gradient)"></path></g></g><style>text {
  font-size: 64px;
  font-family: Arial Black;
  dominant-baseline: central;
  text-anchor: middle;
}</style></svg>